<svg xmlns="http://www.w3.org/2000/svg" viewBox="0 0 240 240"><radialGradient id="gr" cx=".38" cy=".32" r=".85"><stop offset="0" stop-color="#b98cd8"/><stop offset="1" stop-color="#7c3fa6"/></radialGradient>
<ellipse cx="120" cy="210" rx="64" ry="10" fill="rgba(70,90,130,.16)"/>
<path d="M120 44 C118 58 118 66 120 76" fill="none" stroke="#5d7d3a" stroke-width="8" stroke-linecap="round"/>
<path d="M122 56 C140 44 162 48 166 60 C152 72 130 68 122 56 Z" fill="#5d9a44" stroke="#42762e" stroke-width="3"/>
<g fill="url(#gr)" stroke="#3c4258" stroke-width="2.5">
<circle cx="96" cy="92" r="19"/><circle cx="134" cy="90" r="19"/><circle cx="78" cy="124" r="19"/><circle cx="115" cy="122" r="19"/><circle cx="152" cy="122" r="19"/><circle cx="96" cy="156" r="19"/><circle cx="134" cy="156" r="19"/><circle cx="115" cy="188" r="19"/>
</g>
<path d="M86 86 C92 82 100 82 104 86" fill="none" stroke="#fff" stroke-width="5" stroke-linecap="round" opacity=".6"/>
<path d="M124 84 C130 80 138 80 142 84" fill="none" stroke="#fff" stroke-width="5" stroke-linecap="round" opacity=".6"/></svg>